<?xml version="1.0" standalone="no"?>
<svg version="1.0" xmlns="http://www.w3.org/2000/svg" width="512" height="512" viewBox="0 0 512 512">
    <metadata>
        <rdf:RDF xmlns:rdf="http://www.w3.org/1999/02/22-rdf-syntax-ns#" xmlns:schema="http://schema.org/"
            xmlns:dc="http://purl.org/dc/elements/1.1/">
            <rdf:Description>
                <schema:license rdf:resource="MIT License for n4n5" />
                <dc:creator>
                    <rdf:Bag>
                        <rdf:li>n4n5</rdf:li>
                    </rdf:Bag>
                </dc:creator>
            </rdf:Description>
        </rdf:RDF>
    </metadata>
    <defs>
        <mask id="cut-off-bottom">
            <rect x="0" y="0" width="512" height="512" fill="white" />
            <rect x="225" y="30" width="50" height="50" fill="black" />
        </mask>
    </defs>
    <polygon fill="white" points="0 0, 0 512, 512 512, 512 0" />
    <g transform="translate(0 30)">
        <g transform="translate(40, 65) scale(0.95,0.95)" fill="#28b316">
            <path
                d="M352 231 l8 0.5 c2 -1,4 -1,5 -2.5 l8 -9 c2.28-2.414,2.815-6.032,1.329-9.003   l-5.843-11.564l12.973-7.983c1.674-1.03,2.901-2.637,3.456-4.521l5.253-17.86c1.133-3.855-0.797-7.955-4.49-9.538l-7.879-3.326   l1.049-6.1l9.008-3.793c2.151-0.904,3.788-2.7,4.491-4.927l1.269-4.014l10.367,12.253c1.516,1.791,3.712,2.818,6.026,2.818   c4.398,0,7.976-3.565,7.976-7.948l-0.001-13.994l-0.322-15.146c-0.214-10.079-8.578-18.279-18.645-18.279   c-0.747,0-1.504,0.045-2.25,0.135l-77.435,9.292l0.531-1.442c0.876-2.378,0.558-5.056-0.852-7.161   c-1.409-2.106-3.763-3.422-6.294-3.519l-9.848-0.379c-2.599-0.09-5.105,1.101-6.658,3.17l-24.181,32.253l-21.325,10.69   l-17.579-9.057c-1.12-0.576-2.376-0.881-3.634-0.881c-2.187,0-4.3,0.915-5.794,2.51l-16.302,17.388   c-2.068,2.206-2.704,5.34-1.658,8.177l2.943,7.884l-10.435,9.887l-9.946,5.759c-2.84,1.645-4.361,4.805-3.873,8.051l0.831,5.539   c0.578,3.856,3.955,6.766,7.854,6.765c1.125,0,2.221-0.236,3.257-0.702l8.502-3.827l10.604-4.494l10.86,7.602   c0.921,0.646,1.948,1.081,3.047,1.292l16.603,3.165v4.104l-34.356-5.153c-1.383-0.212-2.799-0.047-4.097,0.466l-22.403,8.843   c-2.456,0.97-4.263,3.087-4.835,5.664l-4.38,19.712c-0.621,2.791,0.314,5.713,2.439,7.624l10.325,9.294   c1.665,1.498,3.893,2.222,6.122,1.996l19.936-2.109l0.574,29.839c0.014,0.731,0.129,1.455,0.34,2.151l3.636,12   c2.232,7.368,8.905,12.318,16.604,12.318c6.49,0,12.385-3.575,15.385-9.33l27.542-52.836c1.64-3.145,0.978-7.037-1.61-9.464   l-3.589-3.364l5.584-1.861c2.629-0.877,4.58-3.012,5.216-5.709c0.637-2.697-0.153-5.479-2.113-7.438l-8.196-8.117l0.544-0.688   l17.154,11.061l13.818,19.96c1.483,2.143,3.921,3.421,6.523,3.421c2.989,0,5.696-1.649,7.064-4.304l6.159-12.105l13.825,9.823   c1.362,0.968,2.948,1.48,4.585,1.48c2.357-0.001,4.585-1.043,6.114-2.861c1.498-1.781,2.126-4.133,1.723-6.452L352.346,231.706z" />
            <path
                d="M245.226,298.895c-1.617,3.102-4.794,5.028-8.292,5.028c-4.149,0-7.745-2.668-8.948-6.639l-3.633-11.983l-0.574-29.84   c-0.042-2.214-1.017-4.325-2.675-5.793c-1.657-1.468-3.87-2.173-6.074-1.954l-19.956,2.067l-10.306-9.235l4.344-19.671   l22.372-8.839l37.33,5.6l14.892,19.379c0.341,0.455,9.062,9.044,9.062,9.044L245.226,298.895z" />
            <path
                d="M422.31,296.3l-9.319-17.706c-1.377-2.616-4.071-4.241-7.03-4.241c-2.629,0-5.073,1.293-6.558,3.468l-2.432-3.04   c-1.515-1.894-3.775-2.979-6.202-2.979c-1.437,0-2.849,0.391-4.083,1.132l-22.045,13.227c-2.104,1.261-3.526,3.47-3.805,5.907   l-1.877,16.424c-0.256,2.246,0.459,4.5,1.962,6.185c1.726,1.935,4.28,2.921,6.912,2.594l18.67-2.377l2.958,7.025   c1.242,2.952,4.114,4.859,7.316,4.859c0,0,0,0,0.001,0c0.455,0,0.913-0.04,1.362-0.118l10.25-1.782   c2.514-0.435,4.678-2.068,5.79-4.365l8.253-17.056C423.524,301.198,423.479,298.522,422.31,296.3z M407.02,316.996z" />
            <path
                d="M153.469,265.01l-37.698-24.424c-2.067-1.339-4.459-2.047-6.916-2.047c-3.966,0-7.648,1.844-10.051,4.947l-8.455-4.733   l-15.1-21.496h7.702c1.836,0,3.627-0.642,5.043-1.807l28.637-23.547l15.938-9.032c1.94-1.1,3.336-2.977,3.829-5.151   c0.494-2.175,0.045-4.471-1.231-6.301l-14.111-20.227c-1.531-2.193-4.057-3.468-6.713-3.395c-2.673,0.067-5.115,1.462-6.532,3.729   l-7.273,11.782l-8.339-9.378l16.573-12.187c3.068-2.257,4.102-6.388,2.459-9.822l-4.086-8.545   c-0.953-1.992-2.709-3.509-4.818-4.161c-2.11-0.653-4.415-0.391-6.323,0.715l-7.224,4.21l-32.646-13.813L32.686,97.102   c-2.844-1.604-6.443-1.283-8.957,0.795L11.31,108.156c-1.091,0.901-1.923,2.08-2.405,3.408l-8.429,23.181   c-0.871,2.393-0.534,5.079,0.9,7.185c1.435,2.105,3.811,3.4,6.358,3.467l17.89,0.422l11.355,28.074l-1.854,27.803   c-0.112,1.684,0.327,3.394,1.238,4.814l15.267,23.815c0.919,1.435,2.248,2.517,3.845,3.131l29.367,11.24   c0.266,0.254,0.562,0.465,0.876,0.633l8.586,4.807l-4.611,6.916c-1.646,2.469-1.782,5.619-0.355,8.222l9.663,17.604l-1.26,42.85   c-0.054,1.834,0.534,3.643,1.658,5.096l7.795,10.067c1.52,1.963,3.793,3.089,6.239,3.089c2.157,0,4.255-0.882,5.756-2.419   c1.485-1.521,2.274-3.552,2.222-5.719l-0.358-14.23l29.281-28.035c1.052-1.008,1.806-2.283,2.18-3.689l4.311-16.166   C157.713,270.388,156.365,266.888,153.469,265.01z" />
            <path
                d="M58.366,226.008l-15.258-23.78l1.854-27.803c0.079-1.189-0.115-2.4-0.561-3.504   l-11.36-28.102c-1.187-2.933-3.997-4.88-7.158-4.961L8.022,137.4l8.382-23.076l12.352-10.253l23.448,13.227   c0.265,0.149,0.538,0.283,0.807,0.396l32.653,13.815c2.281,0.964,4.924,0.798,7.07-0.441l7.194-4.239l4.105,8.471l-16.574,12.186   c-1.79,1.316-2.953,3.337-3.191,5.545s0.467,4.431,1.934,6.098l8.33,9.466c1.674,1.902,4.082,2.879,6.607,2.668   c2.525-0.206,4.744-1.557,6.087-3.705l7.321-11.713l14.079,20.065l-15.932,9.029c-0.394,0.222-0.773,0.482-1.134,0.777   l-28.608,23.54c0,0-8.894,0.001-8.941,0.002c-2.709,0.042-5.164,1.583-6.407,4.021c-1.277,2.505-1.072,5.482,0.536,7.771   l8.353,11.891L58.366,226.008z" />
            <path
                d="M136.06,107.943l4.304,3.261v39.436c0,4.382,3.567,7.947,7.951,7.947c1.535,0,3.034-0.45,4.335-1.302l27.258-17.822   c1.707-1.116,2.906-2.823,3.378-4.806l9.091-38.182c0.678-2.85-0.261-5.828-2.45-7.773l-8.403-7.47   c-2.229-1.982-5.52-2.545-8.282-1.414l-35.365,14.468c-2.666,1.09-4.485,3.446-4.865,6.301   C132.632,103.442,133.771,106.192,136.06,107.943z M176.209,87.212z" />
        </g>
        <polygon mask="url(#cut-off-bottom)" fill="none" stroke="#129700" stroke-width="40"
            points="446.1570560806461,289.01806440322565 416.29392246050907,361.11404660392043 361.11404660392043,416.29392246050907 289.01806440322565,446.1570560806461 210.98193559677435,446.1570560806461 138.88595339607963,416.29392246050907 83.70607753949093,361.11404660392043 53.8429439193539,289.0180644032257 53.8429439193539,210.98193559677432 83.7060775394909,138.88595339607963 138.88595339607957,83.70607753949096 210.98193559677443,53.8429439193539 289.01806440322565,53.8429439193539 361.11404660392054,83.70607753949099 416.29392246050907,138.88595339607957 446.1570560806461,210.98193559677443" />
        <path d="M250,10 L250,160" stroke-width="40" stroke="#129700" stroke-linecap="round"></path>
        <g transform="translate(-530 95) scale(1.1,1.1)" stroke="black" fill="none" stroke-width="25"
            stroke-linecap="round">
            <path d="M510 200 L590 100 L590 170 L650 100 L650 200" />
            <path d="M700 200 L780 100 L780 200" />
            <path d="M780 172 L730 172" />
            <path d="M835 200 L835 85 L885 85 L910 105 L910 180 L885 200 L835 200" />
        </g>
    </g>
</svg>