<?xml version="1.0" encoding="UTF-8"?>
<svg xmlns="http://www.w3.org/2000/svg" width="1054" height="397">
	<path fill="#99b380" stroke="#000" d="M716.2554 343.1918l-1.418-10.9513-1.8898-10.7834-2.3531-10.5955-2.808-10.3891-3.2528-10.163-3.688-9.9202-4.1123-9.6582-4.5244-9.3785-4.9241-9.0825-5.3117-8.769-5.6846-8.4394-6.0439-8.095-6.3877-7.7344-6.7165-7.3601-7.029-6.9712-7.325-6.5692-7.6035-6.1544-7.865-5.7278-8.1077-5.2898-8.332-4.8405-8.5371-4.382-8.7232-3.9136-8.8886-3.4365-9.0347-2.9517-9.1593-2.4605-9.258-1.9547-9.3244-1.4336-9.3707-.91-9.3967-.3853-9.4013.1406-9.3853.6658-9.349 1.1902-9.2912 1.7133-9.2097 2.228-9.0952 2.7239-8.9592 3.2123-8.8027 3.692-8.6263 4.1651-8.4297 4.6286-8.2143 5.082-7.9804 5.5254-7.7271 5.9574-7.457 6.3778-7.1686 6.786-6.8643 7.1805-6.5428 7.5625-6.2054 7.929-5.8537 8.2811-5.4868 8.6176-5.106 8.9383-4.7123 9.243-4.3052 9.5304-3.8867 9.8-3.457 10.0526-3.0162 10.2868-2.5656 10.5018-2.1062 10.698-1.6386 10.8756-.6004 5.1148-.4862.3879-.5189.402-.5517.4148-.5853.4257-.6199.4375-.654.4471-.689.4562-.724.4648-.76.4712-.7964.4775-.8328.483-.869.4871-.9065.4907-.9442.4926-.981.494-1.0197.4943-1.0574.4934-1.0952.4917-1.1342.4889-1.1725.4848-1.2116.4803-1.2498.4739-1.2894.467-1.328.4594-1.3667.4503-1.4062.4398-1.445.4289-1.484.4161-1.5231.4034-1.5618.3889-1.6005.3734-1.639.3565-1.6774.3389-1.7164.3206-1.7537.3006-1.792.2802-1.8297.2583-1.867.2352-1.9042.2114-1.941.186-1.9776.1601-2.0134.1333-2.0493.1055-2.2254.0805-2.2963.0496-252.1968.0136.232-5.1315.6985-10.9358.9674-10.8011 1.2293-10.656 1.484-10.5038 1.7315-10.3417 1.9716-10.1722 2.2026-9.9938 2.4263-9.8092 2.6406-9.616 2.8462-9.4162 3.0426-9.2102 3.2296-8.9979 3.406-8.7795 3.5734-8.5558 3.7303-8.327 3.8763-8.0932 4.0123-7.8558 4.1373-7.6139 4.2515-7.3692 4.3539-7.1213 4.4461-6.8703 4.5262-6.6183 4.595-6.364 4.6521-6.1085 4.6972-5.8515 4.719-5.5804 4.726-5.3076 4.7212-5.0379 4.7068-4.7722 4.6813-4.5103 4.6463-4.2529 4.6008-4.0004 4.6722-3.8554 5.3535-4.1947 5.3776-3.9963 5.3957-3.7995 5.4068-3.6047 5.4112-3.412 5.4104-3.2209 5.4026-3.0322 5.389-2.8461 5.3689-2.6633 5.3444-2.4824 5.313-2.3054 5.2766-2.1312 5.2344-1.9597 5.188-1.7933 5.1351-1.6296 5.0788-1.4699 5.0165-1.314 4.95-1.1624 4.8797-1.0151 4.8045-.8728 4.7254-.7336 4.6426-.6003 4.5563-.4712 4.4657-.347 4.3725-.2274 506.0673-.1187 3.9545.0504 4.1355.1597 4.4166.2824 4.508.4039 4.5967.5307 4.6818.6618 4.7627.7977 4.84.9383 4.9128 1.0833 4.982 1.2325 5.0455 1.3863 5.1056 1.5436 5.1607 1.705 5.2102 1.8702 5.2548 2.0398 5.294 2.2112 5.3284 2.3873 5.3562 2.566 5.3795 2.748 5.3957 2.933 5.4072 3.1194 5.4113 3.3092 5.4103 3.5015 5.4022 3.6953 5.388 3.8909 5.3672 4.0886 5.0933 4.0856 4.5726 3.8676 4.623 4.1173 4.664 4.3725 4.6946 4.6313 4.715 4.895 4.7244 5.163 4.724 5.434 4.7118 5.7087 4.6786 5.9715 4.6267 6.2277 4.5644 6.4823 4.4903 6.7356 4.4048 6.9876 4.3074 7.2369 4.1997 7.4838 4.0805 7.7266 3.9504 7.9668 3.8099 8.2024 3.6584 8.4339 3.497 8.6608 3.3252 8.8819 3.1436 9.0974 2.9521 9.3066 2.752 9.51 2.5419 9.7069 2.3231 9.896 2.0967 10.078 1.8606 10.2518 1.6177 10.4181 1.3663 10.5756 1.1083 10.7247.8428 10.8648.5717 10.9958H776.9981l-1.7588-.009-1.7591-.0318-1.7583-.05-1.6632-.0655-1.57-.0805-1.549-.0969-1.5282-.1128-1.5063-.1287-1.4854-.1437-1.4636-.1583-1.4417-.1728-1.4199-.1865-1.398-.2-1.3763-.2125-1.3535-.2251-1.3312-.2365-1.3094-.2479-1.2862-.2592-1.2639-.2692-1.2416-.2798-1.2184-.2888-1.1961-.2978-1.173-.3066-1.1502-.3143-1.1274-.322-1.1048-.3292-1.082-.3357-1.0583-.3415-1.036-.3475-1.0133-.353-.9901-.357-.9674-.3615-.9446-.3652-.9214-.3684-.8992-.3716-.8764-.3738-.8541-.3757-.8314-.377-.8086-.378-.7868-.3784-.7641-.3788-.7423-.378-.7199-.377-.6986-.3761-.6763-.3743-.6549-.372-.633-.3694-.6118-.366-.5908-.363-.5699-.3584-.5484-.3547-.528-.3493-.5076-.3443-.4871-.3389-.4671-.3324-.447-.3261-.4271-.3188-.408-.312-.3884-.3043-.3693-.296z"/>
	<path fill="none" stroke="#000" d="M26.9982 360.2887l-6.5728 6.5724m1006.5729-6.5724l6.5724 6.5724M276.9984 50.454v-9.2948m-6.0676 9.4136l-.3638-9.288M142.606 102.5246l-5.8537-7.22m-32.2565 45.6591l-7.22-5.8542M776.998 50.4542v-9.2949m6.068 9.4136l.3643-9.288m127.9604 61.2397l5.8542-7.22m32.2556 45.6591l7.22-5.8542M276.9983 360.2887v9.2953m6.0676-9.414l.3638 9.288m493.5684-9.1693v9.2953m-6.0675-9.414l-.3639 9.288m-432.8252-26.2663l5.8542 7.2196m145.2925-191.5742l2.0357 9.0692m74.1844-9.0692l-2.0357 9.0692m153.1828 175.2855l-5.8537 7.2195m-676.8306 3.305l-6.5729 6.5724m993.4277-6.5724l6.5724 6.5724m-750-300.5397v-9.2948m-5.7036 9.4067l-.3639-9.288M148.46 109.7447l-5.8538-7.22M111.716 146.818l-7.22-5.8543M776.998 59.749v-9.2948m5.7037 9.4067l.3643-9.288m122.4704 59.1718l5.8543-7.22m30.8898 44.2933l7.22-5.8543M276.9984 350.9934v9.2953m5.7037-9.4067l.3638 9.288m493.9322-9.1766v9.2953m-5.7037-9.4067l-.3638 9.288m-439.0434-24.1996l5.8543 7.2195m149.111-193.422l2.0357 9.0692m78.2558-9.0693l-2.0357 9.0693m157.001 177.1333l-5.8538 7.2195"/>
	<g font-family="Liberation Serif" font-size="24" text-anchor="middle">
		<g font-style="italic">
			<text x="1037" y="387">F</text>
			<text x="697" y="367">G</text>
			<text x="357" y="367">G&apos;</text>
			<text x="17" y="387">F&apos;</text>
		</g>
		<text x="782" y="27">I</text>
		<text x="867" y="47">II</text>
		<text x="947" y="107">III</text>
		<text x="1027" y="227">IV</text>
		<text x="907" y="387">V</text>
		<text x="772" y="387">VI</text>
		<text x="727" y="387">VII</text>
		<text x="647" y="247">VIII</text>
		<text x="527" y="187">IX</text>
		<text x="407" y="247">X</text>
		<text x="327" y="387">XI</text>
		<text x="282" y="387">XII</text>
		<text x="147" y="387">XIII</text>
		<text x="27" y="227">XIV</text>
		<text x="107" y="107">XV</text>
		<text x="187" y="47">XVI</text>
		<text x="272" y="27">XVII</text>
		<text x="527" y="27">XVIII</text>
	</g>
</svg>
