<?xml version="1.0" encoding="UTF-8"?>
<svg xmlns="http://www.w3.org/2000/svg" width="1054" height="397">
	<path fill="#99b380" stroke="#000"
		d="M 716.2554 343.1918 L 714.8374 332.2405 L 712.9476 321.4571 L 710.5945 310.8616 L 707.7865 300.4725 L 704.5337 290.3095 L 700.8457 280.3893 L 696.7334 270.7311 L 692.209 261.3526 L 687.2849 252.2701 L 681.9732 243.5011 L 676.2886 235.0617 L 670.2447 226.9667 L 663.857 219.2323 L 657.1405 211.8722 L 650.1115 204.901 L 642.7865 198.3318 L 635.183 192.1774 L 627.318 186.4496 L 619.2103 181.1598 L 610.8783 176.3193 L 602.3412 171.9373 L 593.618 168.0237 L 584.7294 164.5872 L 575.6947 161.6355 L 566.5354 159.175 L 557.2774 157.2203 L 547.953 155.7867 L 538.5823 154.8767 L 529.1856 154.4914 L 519.7843 154.632 L 510.399 155.2978 L 501.05 156.488 L 491.7588 158.2013 L 482.5491 160.4293 L 473.4539 163.1532 L 464.4947 166.3655 L 455.692 170.0575 L 447.0657 174.2226 L 438.636 178.8512 L 430.4217 183.9332 L 422.4413 189.4586 L 414.7142 195.416 L 407.2572 201.7938 L 400.0886 208.5798 L 393.2243 215.7603 L 386.6815 223.3228 L 380.4761 231.2518 L 374.6224 239.5329 L 369.1356 248.1505 L 364.0296 257.0888 L 359.3173 266.3318 L 355.0121 275.8622 L 351.1254 285.6622 L 347.6684 295.7148 L 344.6522 306.0016 L 342.0866 316.5034 L 339.9804 327.2014 L 338.3418 338.077 L 337.7414 343.1918 L 337.2552 343.5797 L 336.7363 343.9817 L 336.1846 344.3965 L 335.5993 344.8222 L 334.9794 345.2597 L 334.3254 345.7068 L 333.6364 346.163 L 332.9124 346.6278 L 332.1524 347.099 L 331.356 347.5765 L 330.5232 348.0595 L 329.6542 348.5466 L 328.7477 349.0373 L 327.8035 349.5299 L 326.8225 350.0239 L 325.8028 350.5182 L 324.7454 351.0116 L 323.6502 351.5033 L 322.516 351.9922 L 321.3435 352.477 L 320.1319 352.9573 L 318.8821 353.4312 L 317.5927 353.8982 L 316.2647 354.3576 L 314.898 354.8079 L 313.4918 355.2477 L 312.0468 355.6766 L 310.5628 356.0927 L 309.0397 356.4961 L 307.4779 356.885 L 305.8774 357.2584 L 304.2384 357.6149 L 302.561 357.9538 L 300.8446 358.2744 L 299.0909 358.575 L 297.2989 358.8552 L 295.4692 359.1135 L 293.6022 359.3487 L 291.698 359.5601 L 289.757 359.7461 L 287.7794 359.9062 L 285.766 360.0395 L 283.7167 360.145 L 281.4913 360.2255 L 279.195 360.2751 H 776.9981 L 775.2393 360.2797 L 773.4802 360.2479 L 771.7219 360.1979 L 770.0587 360.1324 L 768.4887 360.0519 L 766.9397 359.955 L 765.4115 359.8422 L 763.9052 359.7135 L 762.4198 359.5698 L 760.9562 359.4115 L 759.5145 359.2387 L 758.0946 359.0522 L 756.6966 358.8522 L 755.3203 358.6397 L 753.9668 358.4146 L 752.6356 358.1781 L 751.3262 357.9302 L 750.04 357.671 L 748.7761 357.4018 L 747.5345 357.122 L 746.3161 356.8332 L 745.12 356.5354 L 743.947 356.2288 L 742.7968 355.9145 L 741.6694 355.5925 L 740.5646 355.2633 L 739.4826 354.9276 L 738.4243 354.5861 L 737.3883 354.2386 L 736.375 353.8856 L 735.3849 353.5286 L 734.4175 353.1671 L 733.4729 352.8019 L 732.5515 352.4335 L 731.6523 352.0619 L 730.7759 351.6881 L 729.9218 351.3124 L 729.0904 350.9354 L 728.2818 350.5574 L 727.495 350.179 L 726.7309 349.8002 L 725.9886 349.4222 L 725.2687 349.0452 L 724.5701 348.6691 L 723.8938 348.2948 L 723.2389 347.9228 L 722.6059 347.5534 L 721.9941 347.1874 L 721.4033 346.8244 L 720.8334 346.466 L 720.285 346.1113 L 719.757 345.762 L 719.2494 345.4177 L 718.7623 345.0788 L 718.2952 344.7464 L 717.8482 344.4203 L 717.4211 344.1015 L 717.0131 343.7895 L 716.6247 343.4852 L 716.2554 343.1892 Z" />
	<path fill="none" stroke="#000"
		d="M 276.9983 360.2887 V 369.584 M 283.0659 360.17 L 283.4297 369.458 M 776.9981 360.2887 V 369.584 M 770.9306 360.17 L 770.5667 369.458 M 337.7415 343.1917 L 343.5957 350.4113 M 488.8882 158.8371 L 490.9239 167.9063 M 565.1083 158.8371 L 563.0726 167.9063 M 716.2554 343.1918 L 710.4017 350.4113 M 276.9984 350.9934 V 360.2887 M 282.7021 350.882 L 283.0659 360.17 M 776.9981 350.9934 V 360.2887 M 771.2944 350.882 L 770.9306 360.17 M 331.8872 335.9704 L 337.7415 343.1899 M 486.8525 149.7679 L 488.8882 158.8371 M 567.144 149.7678 L 565.1083 158.8371 M 722.1093 335.9704 L 716.2555 343.1899" />
</svg>